<?xml version="1.0" standalone="no"?>
<!DOCTYPE svg PUBLIC "-//W3C//DTD SVG 20010904//EN"
 "http://www.w3.org/TR/2001/REC-SVG-20010904/DTD/svg10.dtd">
<svg version="1.0" xmlns="http://www.w3.org/2000/svg"
 width="300.000000pt" height="299.000000pt" viewBox="0 0 300.000000 299.000000"
 preserveAspectRatio="xMidYMid meet">
<metadata>
Created by potrace 1.10, written by Peter Selinger 2001-2011
</metadata>
<g transform="translate(0.000000,299.000000) scale(0.100000,-0.100000)"
fill="#000000" stroke="none">
<path d="M900 2691 l0 -88 38 -7 c48 -8 126 -8 146 0 13 5 16 23 16 95 l0 89
-100 0 -100 0 0 -89z m148 8 c4 -45 -15 -61 -65 -57 -35 3 -38 6 -41 36 -5 55
2 63 55 60 47 -3 48 -4 51 -39z"/>
<path d="M1226 2441 c-3 -4 2 -48 10 -97 31 -173 17 -504 -22 -504 -8 0 -14
-8 -14 -17 -1 -24 -34 -63 -54 -63 -9 0 -16 -4 -16 -10 0 -5 -9 -10 -21 -10
-11 0 -17 -4 -14 -10 4 -6 -40 -10 -125 -10 -85 0 -129 4 -125 10 4 6 -5 10
-19 10 -14 0 -26 5 -26 10 0 6 -7 10 -15 10 -8 0 -15 7 -15 15 0 8 -4 15 -8
15 -14 0 -31 63 -38 140 -6 69 8 263 22 318 6 22 5 22 -84 22 -66 0 -91 -4
-95 -13 -15 -39 -28 -216 -24 -317 3 -63 5 -132 6 -152 0 -20 5 -39 11 -43 5
-3 10 -17 10 -30 0 -13 5 -27 10 -30 6 -3 10 -15 10 -26 0 -10 5 -19 10 -19 6
0 10 -9 10 -19 0 -10 7 -21 15 -25 8 -3 15 -12 15 -21 0 -8 7 -15 15 -15 9 0
18 -7 21 -15 4 -8 12 -15 20 -15 7 0 17 -7 22 -16 5 -10 28 -18 55 -21 26 -3
47 -10 47 -14 0 -5 65 -9 145 -9 90 0 145 4 145 10 0 6 11 10 24 10 31 0 86
20 86 31 0 5 6 9 14 9 13 0 96 74 96 85 0 3 11 23 25 45 14 22 25 47 25 56 0
9 7 22 15 28 10 7 18 36 22 79 3 37 10 70 14 73 11 7 12 381 1 388 -5 3 -9 29
-10 58 -1 29 -5 65 -8 81 l-6 27 -88 0 c-49 0 -91 -4 -94 -9z m149 -63 c28
-125 33 -383 11 -508 -29 -160 -107 -275 -219 -326 -54 -24 -77 -28 -182 -32
-90 -3 -133 0 -173 11 -124 37 -192 122 -218 273 -18 102 -8 394 15 417 11 11
49 17 67 10 14 -5 15 -24 9 -138 -12 -230 16 -323 115 -379 53 -30 60 -31 170
-31 107 0 119 2 165 28 62 34 101 81 134 161 23 57 25 72 25 231 -1 94 -6 196
-12 229 -7 32 -9 62 -6 67 3 5 25 9 49 9 38 0 45 -3 50 -22z"/>
<path d="M210 1445 c0 -377 3 -575 10 -575 6 0 10 -20 10 -45 0 -28 5 -45 12
-45 6 0 9 -3 5 -6 -16 -16 75 -134 103 -134 6 0 10 -5 10 -10 0 -6 6 -10 13
-9 6 1 23 1 37 -1 23 -1 23 -2 5 -10 -13 -5 27 -8 105 -8 77 0 115 3 100 8
-23 7 -22 8 11 9 37 1 89 21 89 34 0 4 5 7 10 7 13 0 55 41 57 55 2 17 23 17
29 1 3 -9 12 -16 20 -16 8 0 14 -4 14 -9 0 -5 14 -14 31 -20 17 -6 28 -15 24
-21 -4 -6 4 -10 19 -10 14 0 28 -4 31 -10 3 -6 21 -10 38 -11 27 0 29 -2 12
-9 -13 -6 15 -9 80 -9 68 -1 95 2 85 9 -12 8 -11 10 8 11 26 2 30 3 60 13 12
4 22 12 22 17 0 5 6 9 13 9 33 0 107 113 107 163 0 28 16 45 23 25 2 -7 5 23
6 68 1 56 -3 90 -14 110 -8 16 -15 41 -15 56 0 15 -5 30 -11 33 -6 4 -8 13 -5
21 3 8 1 14 -4 14 -6 0 -10 6 -10 13 0 6 -11 26 -25 42 -14 17 -35 42 -47 57
-13 15 -29 28 -35 28 -7 0 -13 5 -13 10 0 6 -9 10 -20 10 -11 0 -20 5 -20 10
0 6 -18 10 -40 10 -22 0 -40 5 -40 10 0 7 -19 10 -44 9 -25 -2 -43 -6 -40 -11
3 -4 -8 -8 -24 -8 -33 0 -85 -23 -75 -33 3 -4 1 -7 -6 -7 -14 0 -71 -57 -71
-71 0 -5 -8 -9 -17 -9 -15 0 -16 -2 -3 -10 8 -5 11 -10 5 -10 -10 0 -45 -65
-80 -145 -45 -105 -61 -135 -77 -141 -10 -3 -18 -10 -18 -15 0 -5 -12 -9 -27
-9 -22 0 -25 -2 -13 -10 10 -7 -14 -10 -78 -10 -60 0 -91 4 -87 10 3 6 -2 10
-12 10 -10 0 -26 14 -35 31 -17 28 -18 75 -18 570 l0 539 -90 0 -90 0 0 -575z
m132 511 c4 -6 8 -235 8 -509 0 -534 1 -539 52 -594 50 -53 190 -54 269 -1 52
35 84 81 129 188 84 200 186 280 320 251 69 -15 100 -32 143 -80 45 -50 66
-91 83 -161 35 -144 0 -280 -90 -351 -27 -21 -94 -45 -152 -55 -46 -7 -160 32
-223 77 -30 22 -64 39 -76 39 -12 0 -39 -15 -61 -33 -50 -43 -73 -55 -140 -73
-70 -18 -106 -18 -168 1 -78 24 -109 47 -143 110 -38 70 -42 132 -42 665 -1
283 3 520 7 526 16 25 68 25 84 0z"/>
<path d="M1005 1127 c-64 -29 -145 -141 -145 -201 0 -54 96 -105 210 -111 89
-5 127 5 166 46 39 41 39 100 -2 165 -59 96 -151 136 -229 101z m121 -42 c-3
-9 0 -15 8 -15 23 0 56 -36 62 -69 4 -17 13 -31 21 -31 10 0 13 -11 11 -42 -2
-36 -7 -44 -26 -46 -12 -2 -20 -8 -17 -13 4 -5 -35 -9 -95 -9 -65 0 -99 4 -95
10 4 6 -8 10 -29 10 -20 0 -36 5 -36 10 0 6 -7 10 -15 10 -26 0 -17 48 19 105
19 29 44 56 55 60 12 3 19 10 16 15 -8 13 14 18 74 19 43 1 52 -2 47 -14z"/>
<path d="M2326 1832 c-2 -4 -1 -50 2 -102 l7 -95 100 0 100 0 3 103 3 102
-105 0 c-58 0 -107 -3 -110 -8z m162 -55 c16 -13 15 -68 -1 -92 -11 -14 -22
-17 -57 -12 -24 3 -46 11 -50 17 -6 10 -7 43 -1 83 3 23 81 26 109 4z"/>
<path d="M2620 1748 c0 -51 4 -99 8 -106 6 -9 34 -12 103 -10 l94 3 3 103 3
102 -106 0 -105 0 0 -92z m158 25 c13 -26 8 -83 -9 -94 -8 -5 -27 -9 -44 -9
-43 0 -58 13 -60 52 -4 53 9 68 60 68 32 0 47 -5 53 -17z"/>
<path d="M2503 1454 c-10 -4 -13 -66 -13 -260 0 -163 -4 -254 -10 -254 -5 0
-10 -7 -10 -15 0 -8 -1 -16 -2 -17 -2 -1 -87 -4 -191 -7 l-187 -6 0 23 c0 12
-4 22 -10 22 -5 0 -10 20 -10 44 0 25 -4 47 -9 50 -5 3 -12 31 -16 61 -3 30
-9 55 -13 55 -9 0 -32 49 -32 67 0 7 -4 13 -10 13 -5 0 -10 6 -10 13 0 15 -96
117 -128 135 -12 6 -47 12 -77 12 -55 0 -81 -9 -119 -42 -11 -10 -23 -18 -27
-18 -4 0 -11 -9 -14 -20 -3 -11 -11 -20 -17 -20 -16 0 -48 -41 -48 -62 0 -10
-4 -18 -10 -18 -5 0 -10 -9 -10 -20 0 -11 -3 -20 -8 -20 -8 0 -32 -109 -40
-179 -4 -44 27 -201 41 -201 4 0 7 -4 7 -10 0 -17 43 -60 59 -60 14 0 14 -1 1
-10 -12 -8 -11 -10 8 -10 12 0 22 -4 22 -10 0 -5 11 -10 25 -10 14 0 25 -4 25
-8 0 -5 14 -7 30 -4 23 3 30 0 30 -12 0 -13 13 -16 85 -16 l85 0 -6 -28 c-3
-15 -8 -34 -11 -42 -4 -8 -7 -18 -7 -21 -1 -4 -12 -20 -25 -37 -23 -31 -54
-48 -79 -43 -7 1 -15 -5 -18 -14 -9 -22 -224 -23 -224 0 0 10 -10 15 -29 15
-50 0 -91 12 -91 27 0 9 -8 13 -20 11 -12 -2 -21 -6 -20 -10 0 -5 0 -62 0
-128 0 -113 1 -120 20 -120 11 0 20 -4 20 -8 0 -10 60 -32 88 -32 11 0 24 -4
27 -10 4 -6 58 -10 131 -10 76 0 124 4 124 10 0 6 14 10 30 10 17 0 30 5 30
10 0 6 7 10 15 10 8 0 15 5 15 10 0 6 6 10 14 10 8 0 24 13 37 30 13 16 29 30
34 30 9 0 17 11 66 98 10 18 22 50 25 72 4 22 11 43 15 46 5 3 9 24 9 48 0 23
5 47 12 54 8 8 66 12 194 12 147 0 183 3 187 14 3 8 24 17 46 21 46 8 95 51
113 102 7 18 16 33 20 33 4 0 8 10 8 23 0 13 5 28 11 34 14 14 26 567 13 576
-14 8 -157 17 -171 11z m111 -50 c14 -5 16 -35 16 -228 0 -250 -9 -313 -54
-389 -47 -79 -92 -93 -318 -103 -165 -6 -179 -8 -198 -29 -11 -12 -23 -40 -26
-61 -17 -113 -77 -229 -149 -289 -71 -57 -104 -67 -229 -66 -116 2 -163 9
-212 32 -27 13 -29 18 -32 78 -4 93 -4 93 70 70 95 -29 246 -27 314 5 60 28
110 84 128 146 14 46 7 87 -13 83 -6 -2 -11 3 -11 11 0 10 -17 16 -57 20 -200
20 -283 77 -309 213 -40 210 88 443 244 443 49 0 56 -3 103 -47 73 -68 139
-211 154 -336 4 -29 16 -58 30 -75 l23 -27 169 -2 c196 -3 220 4 253 71 18 39
20 61 20 257 0 119 3 219 7 222 8 9 56 9 77 1z"/>
<path d="M1694 1138 c-87 -77 -99 -216 -21 -260 32 -18 115 -37 164 -38 34 0
48 6 73 30 36 35 36 42 10 121 -55 164 -142 220 -226 147z m116 -25 c19 -16
34 -43 56 -98 4 -11 8 -23 8 -27 1 -3 4 -10 9 -14 4 -4 7 -20 7 -36 0 -15 5
-28 11 -28 6 0 4 -7 -5 -15 -17 -17 -126 -21 -126 -5 0 6 -18 10 -39 10 -50 0
-71 27 -71 90 0 45 12 72 53 118 25 27 69 29 97 5z"/>
</g>
</svg>
